# xmcd
#
# Track frame offsets: 
#        150
#        17877
#        28115
#
# Disc length: 599 seconds
#
# Revision: 5
# Processed by: cddbd v1.5PL3 Copyright (c) Steve Scherf et al.
# Submitted via: ExactAudioCopy v0.95a3
#
DISCID=1d025503
DTITLE=Stereophonics - Pick A Part That's New - cd.2
DYEAR=1999
DGENRE=Rock
TTITLE0=Pick A Part That's New (*Acoustic Version)
TTITLE1=In My Day
TTITLE2=Something In The Way (*Written By Kurt Cobain)
EXTD=
EXTT0=
EXTT1=
EXTT2=
PLAYORDER=
